<mxfile host="app.diagrams.net" agent="Mozilla/5.0 (Windows NT 10.0; Win64; x64) AppleWebKit/537.36 (KHTML, like Gecko) Chrome/137.0.0.0 Safari/537.36" version="27.1.1">
  <diagram name="Seite-1" id="PovYaCk_bEuHnwvOI6U-">
    <mxGraphModel dx="1426" dy="743" grid="1" gridSize="10" guides="1" tooltips="1" connect="1" arrows="1" fold="1" page="1" pageScale="1" pageWidth="827" pageHeight="1169" math="0" shadow="0">
      <root>
        <mxCell id="0" />
        <mxCell id="1" parent="0" />
        <mxCell id="WTPrA6GfSF8XxQmBXq4o-2" value="" style="endArrow=none;html=1;rounded=0;fillColor=#fff2cc;strokeColor=#d6b656;" edge="1" parent="1">
          <mxGeometry width="50" height="50" relative="1" as="geometry">
            <mxPoint y="160" as="sourcePoint" />
            <mxPoint x="830" y="160" as="targetPoint" />
          </mxGeometry>
        </mxCell>
        <mxCell id="WTPrA6GfSF8XxQmBXq4o-3" value="&lt;font style=&quot;font-size: 31px;&quot;&gt;Fanta Quotinator&lt;/font&gt;" style="text;html=1;align=center;verticalAlign=middle;whiteSpace=wrap;rounded=0;" vertex="1" parent="1">
          <mxGeometry x="240" y="40" width="330" height="70" as="geometry" />
        </mxCell>
        <mxCell id="WTPrA6GfSF8XxQmBXq4o-5" value="" style="endArrow=none;html=1;rounded=0;fillColor=#fff2cc;strokeColor=#d6b656;" edge="1" parent="1">
          <mxGeometry width="50" height="50" relative="1" as="geometry">
            <mxPoint y="1040" as="sourcePoint" />
            <mxPoint x="830" y="1040" as="targetPoint" />
          </mxGeometry>
        </mxCell>
        <mxCell id="WTPrA6GfSF8XxQmBXq4o-7" value="Steven Kemendics&amp;nbsp; -&amp;nbsp; Last Modified" style="text;html=1;align=left;verticalAlign=middle;whiteSpace=wrap;rounded=0;" vertex="1" parent="1">
          <mxGeometry x="310" y="1080" width="230" height="30" as="geometry" />
        </mxCell>
        <mxCell id="WTPrA6GfSF8XxQmBXq4o-8" value="&lt;font style=&quot;font-size: 37px;&quot;&gt;Wallpaper&lt;/font&gt;&lt;div&gt;&lt;font style=&quot;font-size: 37px;&quot;&gt;(big Picture + Quote)&lt;/font&gt;&lt;/div&gt;" style="text;html=1;align=center;verticalAlign=middle;whiteSpace=wrap;rounded=0;" vertex="1" parent="1">
          <mxGeometry x="154" y="380" width="520" height="170" as="geometry" />
        </mxCell>
        <mxCell id="WTPrA6GfSF8XxQmBXq4o-9" value="(mobile view)" style="text;html=1;align=center;verticalAlign=middle;whiteSpace=wrap;rounded=0;" vertex="1" parent="1">
          <mxGeometry y="20" width="160" height="30" as="geometry" />
        </mxCell>
        <mxCell id="WTPrA6GfSF8XxQmBXq4o-10" value="" style="endArrow=none;html=1;rounded=0;strokeColor=default;strokeWidth=3;" edge="1" parent="1">
          <mxGeometry width="50" height="50" relative="1" as="geometry">
            <mxPoint x="120" y="120" as="sourcePoint" />
            <mxPoint x="160" y="120" as="targetPoint" />
          </mxGeometry>
        </mxCell>
        <mxCell id="WTPrA6GfSF8XxQmBXq4o-11" value="" style="endArrow=none;html=1;rounded=0;strokeWidth=3;" edge="1" parent="1">
          <mxGeometry width="50" height="50" relative="1" as="geometry">
            <mxPoint x="120" y="130" as="sourcePoint" />
            <mxPoint x="160" y="130" as="targetPoint" />
          </mxGeometry>
        </mxCell>
        <mxCell id="WTPrA6GfSF8XxQmBXq4o-12" value="" style="endArrow=none;html=1;rounded=0;strokeWidth=3;" edge="1" parent="1">
          <mxGeometry width="50" height="50" relative="1" as="geometry">
            <mxPoint x="120" y="140" as="sourcePoint" />
            <mxPoint x="160" y="140" as="targetPoint" />
          </mxGeometry>
        </mxCell>
      </root>
    </mxGraphModel>
  </diagram>
</mxfile>
